<svg width="282" height="102" viewBox="0 0 282 102" fill="none" xmlns="http://www.w3.org/2000/svg">
<path d="M95.754 23.31C101.181 23.31 105.719 24.5927 109.37 27.158C113.021 29.674 115.315 33.1767 116.252 37.666L104.264 40.108C103.82 37.888 102.784 36.186 101.156 35.002C99.528 33.7687 97.678 33.152 95.606 33.152C93.6327 33.152 92.0293 33.6453 90.796 34.632C89.5627 35.5693 88.946 36.7533 88.946 38.184C88.946 39.2693 89.242 40.1573 89.834 40.848C90.426 41.5387 91.462 42.032 92.942 42.328L103.228 44.622C107.619 45.6087 110.973 47.3107 113.292 49.728C115.66 52.096 116.844 55.204 116.844 59.052C116.844 62.456 115.931 65.3667 114.106 67.784C112.281 70.2013 109.814 72.0267 106.706 73.26C103.598 74.4933 100.169 75.11 96.42 75.11C90.648 75.11 85.7393 73.8027 81.694 71.188C77.698 68.524 75.3793 64.824 74.738 60.088L87.318 57.646C88.502 62.53 91.758 64.972 97.086 64.972C99.3553 64.972 101.131 64.5033 102.414 63.566C103.746 62.6287 104.412 61.3953 104.412 59.866C104.412 58.682 104.067 57.7447 103.376 57.054C102.735 56.3633 101.551 55.8453 99.824 55.5L89.464 53.28C85.4187 52.3427 82.1873 50.764 79.77 48.544C77.3527 46.324 76.144 43.1173 76.144 38.924C76.144 35.7667 76.958 33.004 78.586 30.636C80.2633 28.268 82.582 26.4673 85.542 25.234C88.502 23.9513 91.906 23.31 95.754 23.31ZM144.186 35.742C147.442 35.742 150.451 36.5807 153.214 38.258C156.026 39.9353 158.246 42.2787 159.874 45.288C161.502 48.248 162.316 51.6273 162.316 55.426C162.316 59.2247 161.502 62.6287 159.874 65.638C158.246 68.6473 156.026 70.9907 153.214 72.668C150.451 74.296 147.442 75.11 144.186 75.11C139.499 75.11 135.651 73.7533 132.642 71.04V86.58H120.802V36.852H132.642V39.812C135.651 37.0987 139.499 35.742 144.186 35.742ZM141.744 65.046C144.359 65.046 146.505 64.158 148.182 62.382C149.859 60.606 150.698 58.2873 150.698 55.426C150.698 52.614 149.859 50.32 148.182 48.544C146.505 46.7187 144.359 45.806 141.744 45.806C140.116 45.806 138.611 46.2253 137.23 47.064C135.849 47.8533 134.739 48.988 133.9 50.468C133.061 51.948 132.642 53.6007 132.642 55.426C132.642 57.3007 133.061 58.978 133.9 60.458C134.739 61.8887 135.849 63.0233 137.23 63.862C138.611 64.6513 140.116 65.046 141.744 65.046ZM185.445 35.89C189.145 35.89 192.549 36.7287 195.657 38.406C198.765 40.034 201.232 42.328 203.057 45.288C204.882 48.248 205.795 51.6273 205.795 55.426C205.795 59.2247 204.882 62.6287 203.057 65.638C201.232 68.598 198.765 70.9167 195.657 72.594C192.549 74.222 189.145 75.036 185.445 75.036C181.696 75.036 178.242 74.222 175.085 72.594C171.977 70.9167 169.486 68.598 167.611 65.638C165.786 62.6287 164.873 59.2247 164.873 55.426C164.873 51.6273 165.786 48.248 167.611 45.288C169.486 42.328 171.977 40.034 175.085 38.406C178.242 36.7287 181.696 35.89 185.445 35.89ZM185.445 65.046C186.974 65.046 188.43 64.6513 189.811 63.862C191.192 63.0233 192.302 61.8887 193.141 60.458C193.98 58.978 194.399 57.3007 194.399 55.426C194.399 53.5513 193.98 51.8987 193.141 50.468C192.302 48.988 191.192 47.8533 189.811 47.064C188.43 46.2253 186.974 45.806 185.445 45.806C183.817 45.806 182.288 46.2253 180.857 47.064C179.476 47.8533 178.366 48.988 177.527 50.468C176.688 51.8987 176.269 53.5513 176.269 55.426C176.269 57.3007 176.688 58.978 177.527 60.458C178.366 61.938 179.476 63.0727 180.857 63.862C182.288 64.6513 183.817 65.046 185.445 65.046ZM238.321 72.372C236.693 73.26 235.089 73.926 233.511 74.37C231.932 74.8633 230.156 75.11 228.183 75.11C223.496 75.11 219.845 73.852 217.231 71.336C214.665 68.82 213.383 65.1447 213.383 60.31V46.25H206.649V36.852H213.383V25.9H225.223V36.852H236.175V46.25H225.223V59.126C225.223 62.7273 226.875 64.528 230.181 64.528C231.019 64.528 231.932 64.4047 232.919 64.158C233.905 63.862 234.793 63.492 235.583 63.048L238.321 72.372ZM271.444 72.372C269.816 73.26 268.213 73.926 266.634 74.37C265.056 74.8633 263.28 75.11 261.306 75.11C256.62 75.11 252.969 73.852 250.354 71.336C247.789 68.82 246.506 65.1447 246.506 60.31V46.25H239.772V36.852H246.506V25.9H258.346V36.852H269.298V46.25H258.346V59.126C258.346 62.7273 259.999 64.528 263.304 64.528C264.143 64.528 265.056 64.4047 266.042 64.158C267.029 63.862 267.917 63.492 268.706 63.048L271.444 72.372Z" fill="white"/>
<path d="M29.9999 9.84216C14.2144 9.84216 1.44727 22.6093 1.44727 38.3948C1.44727 59.8093 29.9999 91.4211 29.9999 91.4211C29.9999 91.4211 58.5525 59.8093 58.5525 38.3948C58.5525 22.6093 45.7854 9.84216 29.9999 9.84216ZM9.60516 38.3948C9.60516 27.1369 18.742 18.0001 29.9999 18.0001C41.2578 18.0001 50.3946 27.1369 50.3946 38.3948C50.3946 50.1422 38.6473 67.7224 29.9999 78.6948C21.5157 67.804 9.60516 50.0198 9.60516 38.3948Z" fill="white"/>
<path d="M29.9991 48.5921C35.631 48.5921 40.1965 44.0266 40.1965 38.3948C40.1965 32.7629 35.631 28.1974 29.9991 28.1974C24.3673 28.1974 19.8018 32.7629 19.8018 38.3948C19.8018 44.0266 24.3673 48.5921 29.9991 48.5921Z" fill="white"/>
</svg>
