<svg width="484" height="72" viewBox="0 0 484 72" fill="none" xmlns="http://www.w3.org/2000/svg">
<g opacity="0.5">
<rect y="20" width="4" height="32" rx="2" fill="#8C8C8C"/>
<rect x="6" y="5" width="4" height="62" rx="2" fill="#8C8C8C"/>
<rect x="12" y="12" width="4" height="48" rx="2" fill="#8C8C8C"/>
<rect x="18" y="3" width="4" height="66" rx="2" fill="#8C8C8C"/>
<rect x="24" width="4" height="72" rx="2" fill="#8C8C8C"/>
<rect x="30" width="4" height="72" rx="2" fill="#8C8C8C"/>
<rect x="36" y="20" width="4" height="32" rx="2" fill="#8C8C8C"/>
<rect x="42" y="26" width="4" height="20" rx="2" fill="#8C8C8C"/>
<rect x="48" y="16" width="4" height="40" rx="2" fill="#8C8C8C"/>
<rect x="54" y="31" width="4" height="10" rx="2" fill="#8C8C8C"/>
<rect x="60" y="20" width="4" height="32" rx="2" fill="#8C8C8C"/>
<rect x="66" y="5" width="4" height="62" rx="2" fill="#8C8C8C"/>
<rect x="72" y="12" width="4" height="48" rx="2" fill="#8C8C8C"/>
<rect x="78" y="3" width="4" height="66" rx="2" fill="#8C8C8C"/>
<rect x="84" width="4" height="72" rx="2" fill="#8C8C8C"/>
<rect x="90" width="4" height="72" rx="2" fill="#8C8C8C"/>
<rect x="96" y="20" width="4" height="32" rx="2" fill="#8C8C8C"/>
<rect x="102" y="26" width="4" height="20" rx="2" fill="#8C8C8C"/>
<rect x="108" y="16" width="4" height="40" rx="2" fill="#8C8C8C"/>
<rect x="114" y="31" width="4" height="10" rx="2" fill="#8C8C8C"/>
<rect x="138" y="12" width="4" height="48" rx="2" fill="#8C8C8C"/>
<rect x="144" width="4" height="72" rx="2" fill="#8C8C8C"/>
<rect x="150" y="7" width="4" height="58" rx="2" fill="#8C8C8C"/>
<rect x="120" y="28" width="4" height="16" rx="2" fill="#8C8C8C"/>
<rect x="126" y="16" width="4" height="40" rx="2" fill="#8C8C8C"/>
<rect x="132" y="20" width="4" height="32" rx="2" fill="#8C8C8C"/>
<rect x="156" y="5" width="4" height="62" rx="2" fill="#8C8C8C"/>
<rect x="162" y="12" width="4" height="48" rx="2" fill="#8C8C8C"/>
<rect x="168" width="4" height="72" rx="2" fill="#8C8C8C"/>
<rect x="174" y="3" width="4" height="66" rx="2" fill="#8C8C8C"/>
<rect x="180" y="3" width="4" height="66" rx="2" fill="#8C8C8C"/>
<rect x="186" y="12" width="4" height="48" rx="2" fill="#8C8C8C"/>
<rect x="192" width="4" height="72" rx="2" fill="#8C8C8C"/>
<rect x="198" y="5" width="4" height="62" rx="2" fill="#8C8C8C"/>
<rect x="204" y="18" width="4" height="36" rx="2" fill="#8C8C8C"/>
<rect x="210" y="28" width="4" height="16" rx="2" fill="#8C8C8C"/>
<rect x="216" y="33" width="4" height="6" rx="2" fill="#8C8C8C"/>
<rect x="222" y="31" width="4" height="10" rx="2" fill="#8C8C8C"/>
<rect x="228" y="28" width="4" height="16" rx="2" fill="#8C8C8C"/>
<rect x="234" y="33" width="4" height="6" rx="2" fill="#8C8C8C"/>
<rect x="246" y="12" width="4" height="48" rx="2" fill="#8C8C8C"/>
<rect x="252" width="4" height="72" rx="2" fill="#8C8C8C"/>
<rect x="258" y="7" width="4" height="58" rx="2" fill="#8C8C8C"/>
<rect x="240" y="28" width="4" height="16" rx="2" fill="#8C8C8C"/>
<rect x="264" y="5" width="4" height="62" rx="2" fill="#8C8C8C"/>
<rect x="270" y="12" width="4" height="48" rx="2" fill="#8C8C8C"/>
<rect x="276" width="4" height="72" rx="2" fill="#8C8C8C"/>
<rect x="282" y="3" width="4" height="66" rx="2" fill="#8C8C8C"/>
<rect x="288" y="3" width="4" height="66" rx="2" fill="#8C8C8C"/>
<rect x="294" y="12" width="4" height="48" rx="2" fill="#8C8C8C"/>
<rect x="300" width="4" height="72" rx="2" fill="#8C8C8C"/>
<rect x="306" y="5" width="4" height="62" rx="2" fill="#8C8C8C"/>
<rect x="312" y="18" width="4" height="36" rx="2" fill="#8C8C8C"/>
<rect x="318" y="7" width="4" height="58" rx="2" fill="#8C8C8C"/>
<rect x="324" y="12" width="4" height="48" rx="2" fill="#8C8C8C"/>
<rect x="330" width="4" height="72" rx="2" fill="#8C8C8C"/>
<rect x="336" y="7" width="4" height="58" rx="2" fill="#8C8C8C"/>
<rect x="342" y="5" width="4" height="62" rx="2" fill="#8C8C8C"/>
<rect x="348" y="12" width="4" height="48" rx="2" fill="#8C8C8C"/>
<rect x="354" width="4" height="72" rx="2" fill="#8C8C8C"/>
<rect x="360" y="3" width="4" height="66" rx="2" fill="#8C8C8C"/>
<rect x="366" y="3" width="4" height="66" rx="2" fill="#8C8C8C"/>
<rect x="372" y="12" width="4" height="48" rx="2" fill="#8C8C8C"/>
<rect x="378" width="4" height="72" rx="2" fill="#8C8C8C"/>
<rect x="384" y="5" width="4" height="62" rx="2" fill="#8C8C8C"/>
<rect x="390" y="18" width="4" height="36" rx="2" fill="#8C8C8C"/>
<rect x="396" y="28" width="4" height="16" rx="2" fill="#8C8C8C"/>
<rect x="402" width="4" height="72" rx="2" fill="#8C8C8C"/>
<rect x="408" width="4" height="72" rx="2" fill="#8C8C8C"/>
<rect x="414" y="6" width="4" height="60" rx="2" fill="#8C8C8C"/>
<rect x="420" width="4" height="72" rx="2" fill="#8C8C8C"/>
<rect x="426" y="9" width="4" height="54" rx="2" fill="#8C8C8C"/>
<rect x="432" y="5" width="4" height="62" rx="2" fill="#8C8C8C"/>
<rect x="438" width="4" height="72" rx="2" fill="#8C8C8C"/>
<rect x="444" y="2" width="4" height="68" rx="2" fill="#8C8C8C"/>
<rect x="450" width="4" height="72" rx="2" fill="#8C8C8C"/>
<rect x="456" y="18" width="4" height="36" rx="2" fill="#8C8C8C"/>
<rect x="462" y="12" width="4" height="48" rx="2" fill="#8C8C8C"/>
<rect x="468" y="20" width="4" height="32" rx="2" fill="#8C8C8C"/>
<rect x="474" y="32" width="4" height="8" rx="2" fill="#8C8C8C"/>
<rect x="480" y="32" width="4" height="8" rx="2" fill="#8C8C8C"/>
</g>
</svg>
